<svg width="4096" height="4097" viewBox="0 0 4096 4097" fill="none" xmlns="http://www.w3.org/2000/svg">
<g clip-path="url(#clip0_1058_2081)">
<rect x="-2.28516" y="7.11621" width="4393.27" height="4159.41" fill="#503b52"/>
<path opacity="0.6" d="M6556.79 2742.46C6588.75 3325.67 6396.01 3844.07 6172.7 4385.9C6112.88 4531.04 6061.85 4687.24 6010.69 4843.85C6007.55 4853.46 6004.4 4863.08 6001.26 4872.7C5946.86 5039.06 5891.69 5205.18 5824.92 5359.02C5691.36 5666.76 5512.05 5923.87 5201.87 6034.6C4890.42 6145.79 4596.08 6041.72 4300.05 5878.91C4199.98 5823.87 4100.09 5762.35 3999.39 5700.33C3951.09 5670.58 3902.6 5640.72 3853.83 5611.4C3703.59 5521.11 3550.91 5436.25 3393.85 5377.13C3199.58 5304.02 2990.54 5257.37 2779.71 5217.56C2710.44 5204.48 2641.03 5192.15 2571.87 5179.86C2430.28 5154.7 2289.78 5129.73 2153.87 5098.97C1749.43 5007.41 1389.03 4865.13 1171.01 4517.27C928.02 4129.59 786.892 3644.23 780.272 3168.32C773.653 2692.4 901.538 2226.56 1195.78 1877.28C1477.28 1543.13 1893.76 1519.14 2347.7 1545.35C2430.98 1550.16 2515.59 1556.67 2600.78 1563.22C2747.13 1574.47 2895.2 1585.86 3041.26 1589.01C3272.61 1594.01 3500.22 1578.44 3710.84 1508.92C3921.85 1439.27 4117.39 1306.81 4304.36 1153.4C4417.2 1060.82 4527.41 960.16 4636.09 860.901C4707.23 795.922 4777.72 731.543 4847.86 670.42C5203.86 360.196 5552.42 132.392 5952.63 306.212C6348.68 478.225 6488.45 867.298 6534.59 1325.02C6557.65 1553.73 6557.24 1798.9 6554.04 2041.61C6553.6 2075.24 6553.1 2108.82 6552.6 2142.31C6549.52 2350.33 6546.49 2554.59 6556.79 2742.46Z" stroke="#252833" stroke-width="15.4515"/>
<path opacity="0.6" d="M1882 317.434C2455.4 149.329 3016.74 220.162 3608.52 315.968C3767.04 341.631 3934.52 355.954 4102.44 370.315C4112.75 371.197 4123.06 372.079 4133.37 372.963C4311.76 388.268 4490.1 404.405 4658.92 434.958C4996.62 496.073 5294.64 614.594 5477.42 897.692C5660.96 1181.96 5626.07 1499.47 5533.09 1832.34C5501.66 1944.86 5463.73 2058.73 5425.49 2173.5C5407.14 2228.56 5388.73 2283.82 5370.94 2339.24C5316.12 2509.96 5267.28 2681.82 5245.1 2852.04C5217.68 3062.57 5220.06 3281.64 5229.68 3500.91C5232.83 3572.95 5236.77 3644.96 5240.69 3716.7C5248.71 3863.59 5256.68 4009.35 5257.79 4151.9C5261.1 4576.09 5203.61 4968.32 4908.07 5266.78C4578.72 5599.37 4128.29 5853.34 3655.85 5971.13C3183.39 6088.93 2689.53 6070.41 2272.89 5858.95C1874.25 5656.64 1753.04 5247.38 1673.09 4789.18C1658.43 4705.11 1645.14 4619.32 1631.75 4532.94C1608.77 4384.57 1585.51 4234.46 1554.53 4088.27C1505.46 3856.7 1436.78 3633.69 1318.34 3440.19C1199.69 3246.35 1022.12 3082.58 825.652 2932.22C707.089 2841.48 581.103 2755.24 456.862 2670.2C375.526 2614.53 294.938 2559.37 217.67 2503.79C-174.453 2221.74 -482.862 1927.76 -403.239 1488.46C-324.447 1053.74 30.4601 823.611 475.543 670.715C697.944 594.315 942.206 537.432 1184.67 483.916C1218.27 476.5 1251.83 469.148 1285.3 461.818C1493.19 416.286 1697.31 371.58 1882 317.434Z" stroke="#252833" stroke-width="15.4515"/>
<path opacity="0.6" d="M2664.24 -1592.29C2881.1 -1634.57 3087.31 -1720.52 3289.58 -1804.83C3360.88 -1834.54 3431.68 -1864.05 3502.29 -1891.38C3773.84 -1996.45 4043.25 -2069.62 4330.88 -2001.99C4706.76 -1913.62 5112.7 -1788.88 5452.96 -1594.28C5793.17 -1399.69 6067.03 -1135.67 6180.09 -768.941C6293.41 -401.363 6223.86 -20.5501 6056.53 336.433C5889.2 693.432 5624.34 1026 5348.15 1296.48C5133.67 1506.52 4849.82 1548.2 4548.07 1567.25C4501.31 1570.2 4454.11 1572.6 4406.69 1575.02C4148.98 1588.16 3884.74 1601.63 3648.71 1704.89C3463.97 1785.73 3293.64 1921.92 3130.89 2075.07C3049.48 2151.67 2969.86 2232.62 2891.23 2313.13C2883.3 2321.24 2875.38 2329.35 2867.48 2337.45C2796.91 2409.75 2727.08 2481.3 2657.26 2548.75C2501.9 2698.87 2347.3 2828.06 2186.31 2899.58C2025.71 2970.92 1858.83 2984.85 1678.08 2904.44C1501.61 2825.95 1404.46 2695.92 1354.7 2532.74C1304.8 2369.12 1302.57 2172.2 1316.58 1960.54C1323.45 1856.75 1334.21 1749.64 1345.08 1641.35L1345.7 1635.2C1356.77 1524.87 1367.9 1413.37 1375.04 1303.26C1389.32 1083.12 1387.76 867.85 1337.84 677.346C1291.5 500.457 1197.98 328.694 1089.98 161.084C1035.96 77.2507 978.226 -5.66598 920.875 -87.7214C917.747 -92.1975 914.619 -96.6709 911.494 -101.142C857.294 -178.672 803.635 -255.429 753.825 -331.646C542.698 -654.702 403.342 -964.33 584.11 -1273.55C766.182 -1585 1103.65 -1630.98 1489.04 -1615.19C1600.86 -1610.61 1715.98 -1600.89 1832.17 -1591.08C1916.35 -1583.97 2001.1 -1576.81 2085.57 -1571.53C2286.05 -1558.99 2483.82 -1557.12 2664.24 -1592.29Z" stroke="#252833" stroke-width="15.4515"/>
<path opacity="0.6" d="M4523.59 3554.44C4740.45 3512.16 4946.67 3426.21 5148.94 3341.91C5220.23 3312.19 5291.04 3282.68 5361.65 3255.35C5633.19 3150.28 5902.61 3077.12 6190.23 3144.74C6566.12 3233.11 6972.06 3357.85 7312.31 3552.45C7652.53 3747.04 7926.38 4011.07 8039.44 4377.79C8152.76 4745.37 8083.21 5126.18 7915.89 5483.16C7748.55 5840.16 7483.69 6172.74 7207.5 6443.21C6993.02 6653.25 6709.17 6694.93 6407.43 6713.98C6360.66 6716.93 6313.47 6719.34 6266.04 6721.75C6008.34 6734.89 5744.09 6748.36 5508.07 6851.62C5323.32 6932.46 5152.99 7068.66 4990.24 7221.8C4908.84 7298.4 4829.22 7379.36 4750.58 7459.86C4742.66 7467.97 4734.74 7476.08 4726.83 7484.19C4656.26 7556.48 4586.43 7628.03 4516.62 7695.48C4361.26 7845.6 4206.66 7974.79 4045.67 8046.31C3885.07 8117.65 3718.18 8131.58 3537.43 8051.18C3360.97 7972.68 3263.82 7842.65 3214.05 7679.47C3164.16 7515.85 3161.93 7318.93 3175.94 7107.27C3182.81 7003.48 3193.56 6896.37 3204.44 6788.09L3205.05 6781.93C3216.13 6671.6 3227.25 6560.1 3234.4 6449.99C3248.68 6229.85 3247.11 6014.58 3197.2 5824.08C3150.86 5647.19 3057.34 5475.43 2949.33 5307.81C2895.31 5223.98 2837.58 5141.07 2780.23 5059.01C2777.1 5054.53 2773.97 5050.06 2770.85 5045.59C2716.65 4968.06 2662.99 4891.3 2613.18 4815.09C2402.05 4492.03 2262.7 4182.4 2443.47 3873.18C2625.54 3561.73 2963 3515.75 3348.39 3531.54C3460.22 3536.12 3575.34 3545.84 3691.53 3555.65C3775.71 3562.76 3860.45 3569.92 3944.92 3575.2C4145.4 3587.74 4343.18 3589.61 4523.59 3554.44Z" stroke="#252833" stroke-width="15.4515"/>
</g>
<defs>
<clipPath id="clip0_1058_2081">
<rect width="4096" height="4096.01" fill="white" transform="translate(0.000976562 0.728516)"/>
</clipPath>
</defs>
</svg>
